<svg xmlns="http://www.w3.org/2000/svg" width="93" height="18" viewBox="0 0 93 18" fill="none">
  <path fill-rule="evenodd" clip-rule="evenodd" d="M83.6999 14.4663L89.4473 18L87.9221 11.34L92.9999 6.85895L86.3132 6.28105L83.6999 0L81.0866 6.28105L74.3999 6.85895L79.4777 11.34L77.9525 18L83.6999 14.4663Z" fill="#FF9017"/>
  <path fill-rule="evenodd" clip-rule="evenodd" d="M65.1 14.4663L70.8475 18L69.3223 11.34L74.4001 6.85895L67.7134 6.28105L65.1 0L62.4867 6.28105L55.8 6.85895L60.8778 11.34L59.3526 18L65.1 14.4663Z" fill="#FF9017"/>
  <path fill-rule="evenodd" clip-rule="evenodd" d="M46.5 14.4663L52.2474 18L50.7221 11.34L55.7999 6.85895L49.1133 6.28105L46.5 0L43.8867 6.28105L37.2 6.85895L42.2778 11.34L40.7526 18L46.5 14.4663Z" fill="#FF9017"/>
  <path fill-rule="evenodd" clip-rule="evenodd" d="M27.9001 14.4663L33.6475 18L32.1223 11.34L37.2001 6.85895L30.5134 6.28105L27.9001 0L25.2868 6.28105L18.6001 6.85895L23.6779 11.34L22.1527 18L27.9001 14.4663Z" fill="#FF9017"/>
  <path fill-rule="evenodd" clip-rule="evenodd" d="M9.3 14.4663L15.0474 18L13.5222 11.34L18.6 6.85895L11.9133 6.28105L9.3 0L6.6867 6.28105L0 6.85895L5.0778 11.34L3.5526 18L9.3 14.4663Z" fill="#FF9017"/>
</svg>