<svg xmlns="http://www.w3.org/2000/svg" width="44" height="44" viewBox="0 0 44 44" fill="none">
  <path fill-rule="evenodd" clip-rule="evenodd" d="M22 44C34.1503 44 44 34.1503 44 22C44 9.84974 34.1503 0 22 0C9.84974 0 0 9.84974 0 22C0 34.1503 9.84974 44 22 44Z" fill="#C7E1FF"/>
  <mask id="mask0_8_965" style="mask-type:alpha" maskUnits="userSpaceOnUse" x="-1" y="-1" width="46" height="46">
    <path fill-rule="evenodd" clip-rule="evenodd" d="M22 44C34.1503 44 44 34.1503 44 22C44 9.84974 34.1503 0 22 0C9.84974 0 0 9.84974 0 22C0 34.1503 9.84974 44 22 44Z" fill="white" stroke="white"/>
  </mask>
  <g mask="url(#mask0_8_965)">
    <path d="M17.1513 33.8012L11.3457 36.9234C11.005 37.1065 8.31198 38.1995 8.0271 38.4449C13.4143 42.5016 18.169 43.4054 22.9429 43.4054C27.6817 43.4054 32.8951 40.8254 36.2703 38.0499C35.959 37.7908 34.7487 37.1485 34.3742 36.9646L28.1574 33.9003C27.3542 33.5044 26.8468 32.695 26.8468 31.8097V29.4049C27.0216 29.2087 27.2213 28.9568 27.435 28.6593C28.2823 27.4793 28.9233 26.1814 29.3675 24.8197C30.1648 24.5772 30.7522 23.8511 30.7522 22.9882V20.4213C30.7522 19.8566 30.4974 19.3521 30.1017 18.9988V15.2881C30.1017 15.2881 30.8748 9.51352 22.9429 9.51352C15.011 9.51352 15.7842 15.2881 15.7842 15.2881V18.9988C15.3877 19.3521 15.1336 19.8566 15.1336 20.4213V22.9882C15.1336 23.6644 15.4941 24.2594 16.0338 24.6033C16.6843 27.3954 18.3878 29.4049 18.3878 29.4049V31.7504C18.387 32.6046 17.9127 33.3914 17.1513 33.8012Z" fill="white"/>
  </g>
</svg>