<svg xmlns="http://www.w3.org/2000/svg" width="22" height="22" viewBox="0 0 22 22" fill="none">
  <g clip-path="url(#clip0_8_978)">
    <path d="M19.5556 3.05554H2.44444C1.79614 3.05554 1.17438 3.31308 0.715961 3.7715C0.257539 4.22993 0 4.85168 0 5.49999L0 16.5C0 17.1483 0.257539 17.77 0.715961 18.2285C1.17438 18.6869 1.79614 18.9444 2.44444 18.9444H19.5556C20.2039 18.9444 20.8256 18.6869 21.284 18.2285C21.7425 17.77 22 17.1483 22 16.5V5.49999C22 4.85168 21.7425 4.22993 21.284 3.7715C20.8256 3.31308 20.2039 3.05554 19.5556 3.05554Z" fill="#DA251D"/>
    <path d="M12.0712 9.80039L10.9999 6.50345L9.92862 9.80039H6.4624L9.26679 11.8372L8.19551 15.1342L10.9999 13.0967L13.8043 15.1342L12.733 11.8372L15.5374 9.80039H12.0712Z" fill="#FFFF00"/>
  </g>
  <defs>
    <clipPath id="clip0_8_978">
      <rect width="22" height="22" fill="white"/>
    </clipPath>
  </defs>
</svg>